HIERARCHY
ROOT Hips
{
	OFFSET -1.531330 91.784700 0.210903
	CHANNELS 6 Xposition Yposition Zposition Zrotation Yrotation Xrotation 
	JOINT Spine
	{
		OFFSET 0.000000 9.923500 -1.227300
		CHANNELS 3 Zrotation Yrotation Xrotation
		JOINT Spine1
		{
			OFFSET -0.000100 11.645400 -1.422300
			CHANNELS 3 Zrotation Yrotation Xrotation
			JOINT Spine2
			{
				OFFSET 0.000100 13.360200 -1.626500
				CHANNELS 3 Zrotation Yrotation Xrotation
				JOINT Neck
				{
					OFFSET 0.000000 15.032500 0.792900
					CHANNELS 3 Zrotation Yrotation Xrotation
					JOINT Head
					{
						OFFSET 0.000000 10.321800 3.142400
						CHANNELS 3 Zrotation Yrotation Xrotation
						JOINT HeadTop_End
						{
							OFFSET 0.000200 18.474700 6.636400
							CHANNELS 3 Zrotation Yrotation Xrotation
							End Site
							{
								OFFSET 0.000000 0.000000 0.000000
							}
						}
						JOINT LeftEye
						{
							OFFSET 2.947900 7.681700 9.120700
							CHANNELS 3 Zrotation Yrotation Xrotation
							End Site
							{
								OFFSET 0.000000 0.000000 0.000000
							}
						}
						JOINT RightEye
						{
							OFFSET -2.944500 7.681700 9.120500
							CHANNELS 3 Zrotation Yrotation Xrotation
							End Site
							{
								OFFSET 0.000000 0.000000 0.000000
							}
						}
					}
				}
				JOINT LeftShoulder
				{
					OFFSET 6.105800 9.110400 0.705600
					CHANNELS 3 Zrotation Yrotation Xrotation
					JOINT LeftArm
					{
						OFFSET 12.655000 -0.265900 -2.600900
						CHANNELS 3 Zrotation Yrotation Xrotation
						JOINT LeftForeArm
						{
							OFFSET 27.404700 0.000000 0.000000
							CHANNELS 3 Zrotation Yrotation Xrotation
							JOINT LeftHand
							{
								OFFSET 27.614500 0.000000 0.000000
								CHANNELS 3 Zrotation Yrotation Xrotation
								JOINT LeftHandMiddle1
								{
									OFFSET 12.775500 0.000000 0.000000
									CHANNELS 3 Zrotation Yrotation Xrotation
									JOINT LeftHandMiddle2
									{
										OFFSET 3.614000 0.000000 0.000000
										CHANNELS 3 Zrotation Yrotation Xrotation
										JOINT LeftHandMiddle3
										{
											OFFSET 3.459800 0.000000 0.000000
											CHANNELS 3 Zrotation Yrotation Xrotation
											End Site
											{
												OFFSET 0.000000 0.000000 0.000000
											}
										}
									}
								}
								JOINT LeftHandThumb1
								{
									OFFSET 3.788800 -2.167000 3.003100
									CHANNELS 3 Zrotation Yrotation Xrotation
									JOINT LeftHandThumb2
									{
										OFFSET 3.675400 -2.122000 2.122000
										CHANNELS 3 Zrotation Yrotation Xrotation
										JOINT LeftHandThumb3
										{
											OFFSET 3.394400 -1.959700 1.959800
											CHANNELS 3 Zrotation Yrotation Xrotation
											End Site
											{
												OFFSET 0.000000 0.000000 0.000000
											}
										}
									}
								}
								JOINT LeftHandIndex1
								{
									OFFSET 12.266600 -0.231700 2.822100
									CHANNELS 3 Zrotation Yrotation Xrotation
									JOINT LeftHandIndex2
									{
										OFFSET 3.892000 0.000000 0.000000
										CHANNELS 3 Zrotation Yrotation Xrotation
										JOINT LeftHandIndex3
										{
											OFFSET 3.415200 0.000000 0.000000
											CHANNELS 3 Zrotation Yrotation Xrotation
											End Site
											{
												OFFSET 0.000000 0.000000 0.000000
											}
										}
									}
								}
								JOINT LeftHandRing1
								{
									OFFSET 12.147000 0.009900 -2.216600
									CHANNELS 3 Zrotation Yrotation Xrotation
									JOINT LeftHandRing2
									{
										OFFSET 3.601200 0.000000 0.000000
										CHANNELS 3 Zrotation Yrotation Xrotation
										JOINT LeftHandRing3
										{
											OFFSET 3.307300 0.000000 0.000000
											CHANNELS 3 Zrotation Yrotation Xrotation
											End Site
											{
												OFFSET 0.000000 0.000000 0.000000
											}
										}
									}
								}
								JOINT LeftHandPinky1
								{
									OFFSET 10.908200 -0.226400 -4.725800
									CHANNELS 3 Zrotation Yrotation Xrotation
									JOINT LeftHandPinky2
									{
										OFFSET 4.136700 0.000000 0.000000
										CHANNELS 3 Zrotation Yrotation Xrotation
										JOINT LeftHandPinky3
										{
											OFFSET 2.594800 0.000000 0.000000
											CHANNELS 3 Zrotation Yrotation Xrotation
											End Site
											{
												OFFSET 0.000000 0.000000 0.000000
											}
										}
									}
								}
							}
						}
					}
				}
				JOINT RightShoulder
				{
					OFFSET -6.105700 9.110500 0.705600
					CHANNELS 3 Zrotation Yrotation Xrotation
					JOINT RightArm
					{
						OFFSET -12.655000 -0.266000 -2.600900
						CHANNELS 3 Zrotation Yrotation Xrotation
						JOINT RightForeArm
						{
							OFFSET -27.404700 0.000000 0.000000
							CHANNELS 3 Zrotation Yrotation Xrotation
							JOINT RightHand
							{
								OFFSET -27.614500 0.000000 0.000000
								CHANNELS 3 Zrotation Yrotation Xrotation
								JOINT RightHandMiddle1
								{
									OFFSET -12.775500 0.000000 0.000000
									CHANNELS 3 Zrotation Yrotation Xrotation
									JOINT RightHandMiddle2
									{
										OFFSET -3.614000 0.000000 0.000000
										CHANNELS 3 Zrotation Yrotation Xrotation
										JOINT RightHandMiddle3
										{
											OFFSET -3.459800 0.000000 0.000000
											CHANNELS 3 Zrotation Yrotation Xrotation
											End Site
											{
												OFFSET 0.000000 0.000000 0.000000
											}
										}
									}
								}
								JOINT RightHandThumb1
								{
									OFFSET -3.788800 -2.167000 3.003100
									CHANNELS 3 Zrotation Yrotation Xrotation
									JOINT RightHandThumb2
									{
										OFFSET -3.675400 -2.122000 2.122000
										CHANNELS 3 Zrotation Yrotation Xrotation
										JOINT RightHandThumb3
										{
											OFFSET -3.394400 -1.959700 1.959800
											CHANNELS 3 Zrotation Yrotation Xrotation
											End Site
											{
												OFFSET 0.000000 0.000000 0.000000
											}
										}
									}
								}
								JOINT RightHandIndex1
								{
									OFFSET -12.266600 -0.231700 2.822100
									CHANNELS 3 Zrotation Yrotation Xrotation
									JOINT RightHandIndex2
									{
										OFFSET -3.892000 0.000000 0.000000
										CHANNELS 3 Zrotation Yrotation Xrotation
										JOINT RightHandIndex3
										{
											OFFSET -3.415200 0.000000 0.000000
											CHANNELS 3 Zrotation Yrotation Xrotation
											End Site
											{
												OFFSET 0.000000 0.000000 0.000000
											}
										}
									}
								}
								JOINT RightHandRing1
								{
									OFFSET -12.147000 0.009900 -2.216600
									CHANNELS 3 Zrotation Yrotation Xrotation
									JOINT RightHandRing2
									{
										OFFSET -3.601200 0.000000 0.000000
										CHANNELS 3 Zrotation Yrotation Xrotation
										JOINT RightHandRing3
										{
											OFFSET -3.307300 0.000000 0.000000
											CHANNELS 3 Zrotation Yrotation Xrotation
											End Site
											{
												OFFSET 0.000000 0.000000 0.000000
											}
										}
									}
								}
								JOINT RightHandPinky1
								{
									OFFSET -10.908200 -0.226400 -4.725800
									CHANNELS 3 Zrotation Yrotation Xrotation
									JOINT RightHandPinky2
									{
										OFFSET -4.136700 0.000000 0.000000
										CHANNELS 3 Zrotation Yrotation Xrotation
										JOINT RightHandPinky3
										{
											OFFSET -2.594800 0.000000 0.000000
											CHANNELS 3 Zrotation Yrotation Xrotation
											End Site
											{
												OFFSET 0.000000 0.000000 0.000000
											}
										}
									}
								}
							}
						}
					}
				}
			}
		}
	}
	JOINT RightUpLeg
	{
		OFFSET -9.124500 -6.656400 -0.055400
		CHANNELS 3 Zrotation Yrotation Xrotation
		JOINT RightLeg
		{
			OFFSET -0.244700 -40.595400 -0.514500
			CHANNELS 3 Zrotation Yrotation Xrotation
			JOINT RightFoot
			{
				OFFSET 0.244700 -42.047900 -2.060200
				CHANNELS 3 Zrotation Yrotation Xrotation
				JOINT RightToeBase
				{
					OFFSET -0.373400 -10.492200 12.640700
					CHANNELS 3 Zrotation Yrotation Xrotation
					End Site
					{
						OFFSET 0.000000 0.000000 0.000000
					}
				}
			}
		}
	}
	JOINT LeftUpLeg
	{
		OFFSET 9.124500 -6.656400 -0.055400
		CHANNELS 3 Zrotation Yrotation Xrotation
		JOINT LeftLeg
		{
			OFFSET 0.244700 -40.595400 -0.517000
			CHANNELS 3 Zrotation Yrotation Xrotation
			JOINT LeftFoot
			{
				OFFSET -0.244700 -42.048000 -2.057600
				CHANNELS 3 Zrotation Yrotation Xrotation
				JOINT LeftToeBase
				{
					OFFSET 0.373400 -10.492200 12.640700
					CHANNELS 3 Zrotation Yrotation Xrotation
					End Site
					{
						OFFSET 0.000000 0.000000 0.000000
					}
				}
			}
		}
	}
}
MOTION
Frames: 4
Frame Time: 0.016667
-1.531330 91.784700 0.210903 -1.541292 2.133361 11.533003 -1.269372 -0.704254 3.007637 -1.061914 -1.611841 6.200133 -1.058555 -1.630485 6.195938 1.719519 1.146599 -3.619786 6.972761 0.874858 -11.103511 -0.000000 0.000000 0.000000 -0.000000 0.000000 0.000000 -0.000000 0.000000 0.000000 -9.954009 1.886877 0.280356 -88.068238 -57.433092 93.813858 179.999939 -83.187300 -179.999969 -26.460949 1.250709 -36.343542 -30.382552 3.491293 -0.948273 -22.085767 2.596879 -0.506885 -11.029145 1.321957 -0.127634 11.529761 3.945131 -9.615932 3.211062 25.845293 -1.933691 3.294943 10.784326 -3.298377 -30.398639 3.492952 -0.949255 -22.069718 2.595109 -0.506148 -11.029145 1.321957 -0.127644 -30.398639 3.492952 -0.949255 -22.069718 2.595109 -0.506148 -11.029145 1.321957 -0.127644 -29.952364 7.555026 -0.906267 -22.560642 -1.155822 1.033120 -11.029144 1.321957 -0.127630 11.529200 -2.520895 0.197795 76.374102 33.896190 55.215046 -0.000000 11.749000 -0.000003 4.148583 4.278432 -13.786174 0.000001 -0.000003 -0.000001 0.000028 -0.000014 -0.000000 0.000015 0.000009 -0.000002 -18.167859 -5.866172 3.125523 -3.501168 -21.668506 6.690807 -2.737000 -6.506265 -0.356005 0.000001 -0.000003 -0.000001 0.000001 -0.000004 0.000005 0.000003 -0.000003 -0.000006 0.000001 -0.000003 -0.000001 0.000012 -0.000008 -0.000000 -0.000003 -0.000008 -0.000005 0.000001 -0.000003 -0.000001 0.000001 -0.000004 0.000005 0.000003 -0.000003 -0.000006 4.633265 -0.023654 -50.174506 -4.160392 -7.240804 26.645030 -4.589268 -1.714629 -8.336769 0.000001 0.000010 0.016499 6.610296 14.615076 0.925106 -5.474666 -7.730671 32.341329 6.156796 -1.821332 -4.345760 -3.541187 -2.077722 -36.607678 
-1.956320 91.334200 3.262480 -2.226626 2.801878 10.995408 -0.852448 -0.618860 3.139923 -0.805205 -1.640353 6.376984 -0.803854 -1.654734 6.373659 1.893881 1.060425 -3.564841 6.949332 0.609850 -11.046834 -0.000000 0.000000 0.000000 -0.000000 0.000000 0.000000 -0.000000 0.000000 0.000000 -9.930934 1.719275 0.308489 -87.690330 -57.569250 93.468248 180.000000 -83.113600 -179.999924 -26.268032 1.088018 -36.406017 -30.382552 3.491293 -0.948273 -22.085766 2.596879 -0.506870 -11.029145 1.321967 -0.127667 11.529761 3.945131 -9.615932 3.211062 25.845293 -1.933691 3.294943 10.784326 -3.298377 -30.398639 3.492952 -0.949255 -22.069719 2.595099 -0.506166 -11.029145 1.321977 -0.127652 -30.398639 3.492952 -0.949255 -22.069719 2.595099 -0.506166 -11.029145 1.321977 -0.127652 -29.952364 7.555026 -0.906267 -22.560642 -1.155832 1.033120 -11.029145 1.321977 -0.127647 11.630872 -2.618167 0.180125 76.769926 34.329776 55.388206 -0.000017 10.758800 -0.000004 4.124299 4.655189 -13.890939 0.000001 -0.000003 -0.000001 0.000028 -0.000014 -0.000000 0.000015 0.000009 -0.000002 -18.167859 -5.866172 3.125523 -3.501168 -21.668506 6.690807 -2.737000 -6.506265 -0.356005 0.000001 -0.000003 -0.000001 0.000001 -0.000004 0.000005 0.000003 -0.000003 -0.000006 0.000001 -0.000003 -0.000001 0.000012 -0.000008 -0.000000 -0.000003 -0.000008 -0.000005 0.000001 -0.000003 -0.000001 0.000001 -0.000004 0.000005 0.000003 -0.000003 -0.000006 5.039656 0.469626 -50.169807 -5.188494 -8.025182 29.833977 -4.170582 -1.964384 -3.616098 -0.000003 0.000003 -0.054171 8.556218 14.791797 0.747130 -6.056623 -7.771419 35.097276 5.658161 -2.485652 3.245577 -3.166979 -2.132703 -45.447398 
-2.316200 90.864400 6.198300 -2.963540 3.280076 10.435587 -0.443274 -0.563778 3.272349 -0.574634 -1.610787 6.570228 -0.574812 -1.621723 6.567732 2.083746 0.981206 -3.514766 6.879315 0.406066 -11.075382 0.000000 0.000000 -0.000000 0.000000 0.000000 -0.000000 0.000000 0.000000 -0.000000 -9.920972 1.609004 0.327225 -87.335736 -57.719396 93.095788 -179.999924 -83.064700 179.999969 -26.071052 0.898575 -36.491712 -30.382552 3.491293 -0.948273 -22.085767 2.596889 -0.506881 -11.029144 1.321977 -0.127625 11.529761 3.945131 -9.615932 3.211062 25.845293 -1.933691 3.294943 10.784326 -3.298377 -30.398639 3.492952 -0.949255 -22.069718 2.595109 -0.506162 -11.029144 1.321967 -0.127621 -30.398639 3.492952 -0.949255 -22.069718 2.595109 -0.506162 -11.029144 1.321967 -0.127621 -29.952364 7.555026 -0.906267 -22.560542 -1.155822 1.033110 -11.029144 1.321967 -0.127622 11.683960 -2.687029 0.167227 77.088324 34.714102 55.484165 0.000000 10.045000 0.000000 3.950144 4.955721 -13.841869 0.000001 -0.000003 -0.000001 0.000028 -0.000014 -0.000000 0.000015 0.000009 -0.000002 -18.167859 -5.866172 3.125523 -3.501168 -21.668506 6.690807 -2.737000 -6.506265 -0.356005 0.000001 -0.000003 -0.000001 0.000001 -0.000004 0.000005 0.000003 -0.000003 -0.000006 0.000001 -0.000003 -0.000001 0.000012 -0.000008 -0.000000 -0.000003 -0.000008 -0.000005 0.000001 -0.000003 -0.000001 0.000001 -0.000004 0.000005 0.000003 -0.000003 -0.000006 5.595849 0.969773 -49.844226 -5.851251 -8.119227 32.730679 -3.587666 -2.158172 -0.293267 -0.000002 0.000001 -0.102629 10.390376 14.323175 -0.733312 -6.642599 -7.173081 40.027916 3.223501 -2.558069 9.183771 -2.047627 -1.466916 -48.743602 
-2.613330 90.374200 9.047110 -3.747987 3.617339 9.891094 -0.003226 -0.517970 3.403749 -0.364514 -1.551057 6.769322 -0.365916 -1.558669 6.767656 2.276494 0.908929 -3.467727 6.785705 0.244297 -11.137603 0.000000 -0.000000 0.000000 0.000000 -0.000000 0.000000 0.000000 -0.000000 0.000000 -9.919760 1.535983 0.339869 -87.009541 -57.876205 92.742533 180.000000 -83.036600 -179.999924 -25.856316 0.697486 -36.591752 -30.382552 3.491293 -0.948273 -22.085767 2.596879 -0.506889 -11.029145 1.321997 -0.127642 11.529761 3.945131 -9.615932 3.211062 25.845293 -1.933691 3.294943 10.784326 -3.298377 -30.398639 3.492952 -0.949255 -22.069718 2.595089 -0.506163 -11.029145 1.322007 -0.127626 -30.398639 3.492952 -0.949255 -22.069718 2.595089 -0.506163 -11.029145 1.322007 -0.127626 -29.952364 7.555026 -0.906267 -22.560542 -1.155822 1.033130 -11.029144 1.321987 -0.127621 11.712288 -2.739370 0.157179 77.378812 35.057662 55.512002 0.000009 9.437200 0.000003 3.667477 5.219905 -13.646482 0.000001 -0.000003 -0.000001 0.000028 -0.000014 -0.000000 0.000015 0.000009 -0.000002 -18.167859 -5.866172 3.125523 -3.501168 -21.668506 6.690807 -2.737000 -6.506265 -0.356005 0.000001 -0.000003 -0.000001 0.000001 -0.000004 0.000005 0.000003 -0.000003 -0.000006 0.000001 -0.000003 -0.000001 0.000012 -0.000008 -0.000000 -0.000003 -0.000008 -0.000005 0.000001 -0.000003 -0.000001 0.000001 -0.000004 0.000005 0.000003 -0.000003 -0.000006 6.274265 1.444964 -49.371931 -6.309377 -7.928580 35.453363 -2.992048 -2.326848 1.834543 -0.000000 -0.000010 -0.109667 12.011892 13.478076 -2.613804 -7.147816 -6.487255 45.120025 0.080286 -1.764149 15.068912 -1.118457 -0.790275 -49.674320 
